<svg width="30" height="31" viewBox="0 0 30 31" fill="none" xmlns="http://www.w3.org/2000/svg">
<path id="Vector" d="M29.506 27.65L22.9179 21.059C24.8932 18.4849 25.8155 15.2558 25.4975 12.0268C25.1796 8.79768 23.6452 5.81045 21.2058 3.67103C18.7663 1.53162 15.6044 0.400222 12.3615 0.506357C9.11854 0.612491 6.03738 1.94821 3.74304 4.24255C1.4487 6.53689 0.112979 9.61805 0.00684501 12.861C-0.0992893 16.104 1.03211 19.2659 3.17152 21.7053C5.31094 24.1447 8.29817 25.6791 11.5272 25.997C14.7563 26.315 17.9854 25.3927 20.5595 23.4174L27.1532 30.0125C27.3081 30.1673 27.4919 30.2902 27.6942 30.374C27.8966 30.4578 28.1134 30.5009 28.3324 30.5009C28.5514 30.5009 28.7682 30.4578 28.9706 30.374C29.1729 30.2902 29.3567 30.1673 29.5116 30.0125C29.6664 29.8576 29.7893 29.6738 29.8731 29.4715C29.9569 29.2691 30 29.0523 30 28.8333C30 28.6143 29.9569 28.3974 29.8731 28.1951C29.7893 27.9928 29.6664 27.809 29.5116 27.6541L29.506 27.65ZM3.35743 13.2904C3.35743 11.4246 3.91069 9.60075 4.94725 8.04943C5.9838 6.49811 7.4571 5.28901 9.18083 4.57502C10.9046 3.86102 12.8013 3.67421 14.6312 4.0382C16.4611 4.40219 18.142 5.30064 19.4613 6.61992C20.7806 7.93921 21.679 9.62008 22.043 11.45C22.407 13.2799 22.2202 15.1766 21.5062 16.9004C20.7922 18.6241 19.5831 20.0974 18.0318 21.134C16.4804 22.1705 14.6566 22.7238 12.7908 22.7238C10.2897 22.7212 7.8918 21.7265 6.12325 19.9579C4.3547 18.1894 3.36 15.7915 3.35743 13.2904Z" fill="#3B4949"/>
</svg>
