<svg width="30" height="31" viewBox="0 0 30 31" fill="none" xmlns="http://www.w3.org/2000/svg">
<g id="fi-br-home" clip-path="url(#clip0_523_71)">
<g id="Group">
<path id="Vector" d="M28.7183 11.3689L19.8608 2.51139C17.174 -0.168509 12.8251 -0.168509 10.1383 2.51139L1.2808 11.3689C0.457672 12.1876 -0.00369416 13.3016 -0.000471511 14.4626V27.4351C0.00228239 29.1284 1.37501 30.4999 3.06831 30.5013H26.9307C28.624 30.5 29.9967 29.1284 29.9995 27.4351V14.4626C30.0028 13.3016 29.5414 12.1876 28.7183 11.3689ZM26.2495 26.7513H19.9995V22.7738C19.9995 20.1381 17.8628 18.0013 15.227 18.0013H14.772C12.1363 18.0013 9.99953 20.1381 9.99953 22.7738V26.7513H3.74952V14.4626C3.74993 14.2969 3.81544 14.1379 3.93204 14.0201L12.7895 5.16263C14.0097 3.94207 15.9884 3.94183 17.2089 5.16205C17.2091 5.16222 17.2094 5.16246 17.2095 5.16263L26.067 14.0201C26.1836 14.1379 26.2491 14.2969 26.2495 14.4626V26.7513H26.2495Z" fill="#3B4949"/>
</g>
</g>
<defs>
<clipPath id="clip0_523_71">
<rect width="30" height="30" fill="white" transform="translate(0 0.5)"/>
</clipPath>
</defs>
</svg>
