<svg width="30" height="31" viewBox="0 0 30 31" fill="none" xmlns="http://www.w3.org/2000/svg">
<g id="fi-br-briefcase" clip-path="url(#clip0_523_77)">
<path id="Vector" d="M23.125 4.25H22.3225C22.0462 3.17982 21.4231 2.23135 20.5505 1.55287C19.678 0.874393 18.6053 0.504142 17.5 0.5L12.5 0.5C11.3947 0.504142 10.322 0.874393 9.44946 1.55287C8.57693 2.23135 7.95381 3.17982 7.6775 4.25H6.875C5.05225 4.25199 3.30472 4.97695 2.01583 6.26583C0.726951 7.55472 0.00198521 9.30225 0 11.125L0 23.625C0.00198521 25.4478 0.726951 27.1953 2.01583 28.4842C3.30472 29.773 5.05225 30.498 6.875 30.5H23.125C24.9477 30.4977 26.695 29.7726 27.9838 28.4838C29.2726 27.195 29.9977 25.4477 30 23.625V11.125C29.9977 9.30235 29.2726 7.55501 27.9838 6.2662C26.695 4.97739 24.9477 4.25232 23.125 4.25ZM6.875 8H23.125C23.9538 8 24.7487 8.32924 25.3347 8.91529C25.9208 9.50134 26.25 10.2962 26.25 11.125V14.25H3.75V11.125C3.75 10.2962 4.07924 9.50134 4.66529 8.91529C5.25134 8.32924 6.0462 8 6.875 8ZM23.125 26.75H6.875C6.0462 26.75 5.25134 26.4208 4.66529 25.8347C4.07924 25.2487 3.75 24.4538 3.75 23.625V18H12.5C12.5 18.663 12.7634 19.2989 13.2322 19.7678C13.7011 20.2366 14.337 20.5 15 20.5C15.663 20.5 16.2989 20.2366 16.7678 19.7678C17.2366 19.2989 17.5 18.663 17.5 18H26.25V23.625C26.25 24.4538 25.9208 25.2487 25.3347 25.8347C24.7487 26.4208 23.9538 26.75 23.125 26.75Z" fill="#3B4949"/>
</g>
<defs>
<clipPath id="clip0_523_77">
<rect width="30" height="30" fill="white" transform="translate(0 0.5)"/>
</clipPath>
</defs>
</svg>
