<svg width="30" height="29" viewBox="0 0 30 29" fill="none" xmlns="http://www.w3.org/2000/svg">
<path id="Vector" d="M29.8028 26.4236C27.8984 23.0813 24.9249 20.4771 21.3607 19.0302C23.1331 17.7009 24.4424 15.8476 25.103 13.7328C25.7636 11.6181 25.742 9.34906 25.0414 7.24723C24.3408 5.14539 22.9966 3.31728 21.1993 2.02183C19.402 0.72639 17.2426 0.0292969 15.0271 0.0292969C12.8115 0.0292969 10.6522 0.72639 8.85484 2.02183C7.05751 3.31728 5.71334 5.14539 5.01273 7.24723C4.31212 9.34906 4.29058 11.6181 4.95118 13.7328C5.61178 15.8476 6.92102 17.7009 8.69344 19.0302C5.12928 20.4771 2.1557 23.0813 0.251386 26.4236C0.133388 26.6133 0.0547424 26.8248 0.0201255 27.0456C-0.0144914 27.2663 -0.00437339 27.4917 0.0498783 27.7085C0.10413 27.9252 0.201408 28.1289 0.335928 28.3073C0.470449 28.4857 0.639466 28.6352 0.832932 28.747C1.0264 28.8588 1.24036 28.9305 1.46211 28.9579C1.68385 28.9854 1.90885 28.9679 2.12372 28.9067C2.33859 28.8454 2.53896 28.7416 2.7129 28.6013C2.88684 28.4611 3.0308 28.2873 3.13624 28.0903C5.65302 23.7401 10.0977 21.1455 15.0271 21.1455C19.9565 21.1455 24.4011 23.7415 26.9179 28.0903C27.1464 28.4577 27.5088 28.7219 27.9286 28.827C28.3483 28.932 28.7924 28.8697 29.1671 28.6533C29.5417 28.4368 29.8175 28.0832 29.9361 27.6671C30.0548 27.251 30.0069 26.805 29.8028 26.4236ZM7.80451 10.5895C7.80451 9.16102 8.22811 7.76461 9.02173 6.57687C9.81536 5.38913 10.9434 4.46339 12.2631 3.91674C13.5829 3.37008 15.0351 3.22705 16.4361 3.50573C17.8372 3.78441 19.1241 4.4723 20.1342 5.48239C21.1443 6.49248 21.8322 7.77942 22.1108 9.18046C22.3895 10.5815 22.2465 12.0337 21.6998 13.3535C21.1532 14.6732 20.2274 15.8012 19.0397 16.5948C17.852 17.3885 16.4556 17.8121 15.0271 17.8121C13.1122 17.8099 11.2764 17.0482 9.92239 15.6942C8.56837 14.3402 7.80672 12.5044 7.80451 10.5895Z" fill="#36C9C1"/>
</svg>
