<svg width="30" height="31" viewBox="0 0 30 31" fill="none" xmlns="http://www.w3.org/2000/svg">
<path id="Vector" d="M15 30.5121C12.9832 30.5121 11.0803 29.677 9.72072 28.2336C7.74522 28.2899 5.80351 27.5388 4.37634 26.1129C2.95042 24.6857 2.19678 22.7503 2.25437 20.7685C-0.751455 18.0782 -0.751455 12.9003 2.25437 10.2099C2.19678 8.22818 2.95042 6.29273 4.37634 4.86556C5.80477 3.43839 7.73896 2.66597 9.72072 2.74359C12.4098 -0.263487 17.5902 -0.263487 20.2793 2.74359C22.246 2.67348 24.1952 3.43839 25.6237 4.86431C27.0496 6.29148 27.8032 8.22693 27.7456 10.2087C30.7515 12.899 30.7515 18.0769 27.7456 20.7672C27.8032 22.749 27.0496 24.6845 25.6237 26.1116C24.1952 27.5388 22.2485 28.3 20.2793 28.2336C18.9197 29.677 17.0181 30.5121 15 30.5121ZM10.5395 24.3815C11.1567 24.3815 11.7438 24.6857 12.0968 25.2103C13.3875 27.2484 16.6137 27.2484 17.9044 25.2103C18.3263 24.5856 19.0775 24.2713 19.8198 24.4165C20.9716 24.6394 22.1446 24.2813 22.9684 23.4563C23.7909 22.6326 24.1502 21.4558 23.9286 20.3078C23.7859 19.5679 24.0976 18.8143 24.7223 18.3936C26.7604 17.1029 26.7604 13.8755 24.7223 12.5848C24.0976 12.1642 23.7859 11.4105 23.9286 10.6706C24.1514 9.52265 23.7921 8.34586 22.9684 7.5221C22.1446 6.69835 20.9716 6.34031 19.8198 6.56189C19.085 6.71087 18.3263 6.39289 17.9044 5.76819C16.6137 3.73009 13.3875 3.73009 12.0968 5.76819C11.6762 6.39289 10.9238 6.70962 10.1814 6.56189C9.03092 6.33906 7.85789 6.69835 7.03288 7.5221C6.21038 8.34586 5.85109 9.52265 6.07267 10.6706C6.21539 11.4105 5.90367 12.1642 5.27897 12.5848C3.24087 13.8755 3.24087 17.1029 5.27897 18.3936C5.90367 18.8143 6.21539 19.5679 6.07267 20.3078C5.84983 21.4558 6.20913 22.6326 7.03288 23.4563C7.85789 24.2801 9.03092 24.6394 10.1814 24.4165C10.3004 24.3928 10.4205 24.3815 10.5395 24.3815ZM10.6183 10.4816C8.14958 10.5242 8.15083 14.196 10.6183 14.2373C13.0871 14.1948 13.0858 10.5229 10.6183 10.4816ZM19.3817 16.7411C16.9129 16.7837 16.9142 20.4555 19.3817 20.4968C21.8504 20.4543 21.8492 16.7824 19.3817 16.7411ZM14.0586 20.2865L19.0662 12.7751C19.6421 11.9125 19.408 10.7458 18.5454 10.1711C17.6841 9.59651 16.5173 9.82936 15.9414 10.6919L10.9338 18.2034C10.3579 19.0659 10.592 20.2327 11.4546 20.8073C11.7751 21.0201 12.1369 21.1228 12.4949 21.1228C13.1009 21.1228 13.6968 20.8298 14.0586 20.2865Z" fill="#3B4949"/>
</svg>
